<svg width="24" height="24" viewBox="0 0 24 24" fill="none" xmlns="http://www.w3.org/2000/svg">
    <path d="M17.25 8.39719V7.875C17.25 5.52375 13.7034 3.75 9 3.75C4.29656 3.75 0.75 5.52375 0.75 7.875V11.625C0.75 13.5834 3.21094 15.1397 6.75 15.6056V16.125C6.75 18.4762 10.2966 20.25 15 20.25C19.7034 20.25 23.25 18.4762 23.25 16.125V12.375C23.25 10.4344 20.8669 8.87625 17.25 8.39719ZM21.75 12.375C21.75 13.6144 18.8634 15 15 15C14.6503 15 14.3034 14.9878 13.9613 14.9653C15.9834 14.2284 17.25 13.0312 17.25 11.625V9.91313C20.0503 10.3303 21.75 11.4628 21.75 12.375ZM6.75 14.0859V11.8556C7.49604 11.9528 8.24765 12.0011 9 12C9.75235 12.0011 10.504 11.9528 11.25 11.8556V14.0859C10.5051 14.196 9.75302 14.2508 9 14.25C8.24698 14.2508 7.49493 14.196 6.75 14.0859ZM15.75 10.3059V11.625C15.75 12.4116 14.5866 13.2562 12.75 13.7691V11.5781C13.9603 11.2847 14.985 10.8478 15.75 10.3059ZM9 5.25C12.8634 5.25 15.75 6.63563 15.75 7.875C15.75 9.11437 12.8634 10.5 9 10.5C5.13656 10.5 2.25 9.11437 2.25 7.875C2.25 6.63563 5.13656 5.25 9 5.25ZM2.25 11.625V10.3059C3.015 10.8478 4.03969 11.2847 5.25 11.5781V13.7691C3.41344 13.2562 2.25 12.4116 2.25 11.625ZM8.25 16.125V15.7341C8.49656 15.7434 8.74594 15.75 9 15.75C9.36375 15.75 9.71906 15.7378 10.0678 15.7172C10.4552 15.8559 10.8499 15.9736 11.25 16.0697V18.2691C9.41344 17.7562 8.25 16.9116 8.25 16.125ZM12.75 18.5859V16.35C13.4958 16.4503 14.2475 16.5004 15 16.5C15.7523 16.5011 16.504 16.4528 17.25 16.3556V18.5859C15.758 18.8047 14.242 18.8047 12.75 18.5859ZM18.75 18.2691V16.0781C19.9603 15.7847 20.985 15.3478 21.75 14.8059V16.125C21.75 16.9116 20.5866 17.7562 18.75 18.2691Z" fill="black"/>
    <path fill-rule="evenodd" clip-rule="evenodd" d="M17.1562 8.47934V7.875C17.1562 6.75209 16.3087 5.74563 14.8469 5.01463C13.3886 4.28543 11.3413 3.84375 9 3.84375C6.65869 3.84375 4.61143 4.28543 3.15314 5.01463C1.69127 5.74563 0.84375 6.75209 0.84375 7.875V11.625C0.84375 12.5606 1.43107 13.4139 2.47419 14.0966C3.51661 14.7787 5.00196 15.2809 6.76224 15.5127L6.84375 15.5234V16.125C6.84375 17.2479 7.69127 18.2544 9.15314 18.9854C10.6114 19.7146 12.6587 20.1562 15 20.1562C17.3413 20.1562 19.3886 19.7146 20.8469 18.9854C22.3087 18.2544 23.1562 17.2479 23.1562 16.125V12.375C23.1562 11.4475 22.5874 10.5982 21.5547 9.91624C20.5222 9.23442 19.037 8.72845 17.2377 8.49013L17.1562 8.47934ZM13.9551 15.0589L13.9292 14.8772C15.9427 14.1435 17.1562 12.9684 17.1562 11.625V9.80437L17.2638 9.8204C18.6725 10.0303 19.8095 10.4207 20.5971 10.8773C20.9908 11.1056 21.3003 11.3521 21.5124 11.6038C21.724 11.8549 21.8438 12.1174 21.8438 12.375C21.8438 12.7222 21.6423 13.0644 21.302 13.377C20.9605 13.691 20.4684 13.9855 19.8598 14.2388C18.642 14.7456 16.942 15.0938 15 15.0938C14.6481 15.0938 14.2992 15.0815 13.9551 15.0589ZM6.65625 14.1669V11.7489L6.76211 11.7627C7.5041 11.8593 8.25161 11.9073 8.99987 11.9062C9.74812 11.9073 10.4959 11.8593 11.2379 11.7627L11.3438 11.7489V14.1669L11.2637 14.1787C10.5142 14.2894 9.7576 14.3446 9 14.3438C8.2424 14.3446 7.48577 14.2894 6.7363 14.1787L6.65625 14.1669ZM6.75 14.0859C7.49493 14.196 8.24698 14.2508 9 14.25C9.75302 14.2508 10.5051 14.196 11.25 14.0859V11.9502C11.254 11.9496 11.2581 11.9491 11.2621 11.9486L11.25 11.8556H11.1562V11.8676C10.441 11.9568 9.72084 12.001 9 12C8.27916 12.001 7.55899 11.9568 6.84375 11.8676V11.8556H6.75L6.73789 11.9486C6.74192 11.9491 6.74596 11.9496 6.75 11.9502V14.0859ZM15.8438 10.1246V11.625C15.8438 12.0648 15.5211 12.497 14.9934 12.8758C14.4613 13.2578 13.7003 13.6011 12.7752 13.8594L12.6562 13.8926V11.5044L12.7279 11.487C13.9301 11.1956 14.943 10.7627 15.6958 10.2294L15.8438 10.1246ZM2.15625 10.1246L2.30419 10.2294C3.05704 10.7627 4.06994 11.1956 5.27209 11.487L5.34375 11.5044V13.8926L5.22479 13.8594C4.2997 13.6011 3.53866 13.2578 3.00662 12.8758C2.47893 12.497 2.15625 12.0648 2.15625 11.625V10.1246ZM8.15625 15.6367L8.25356 15.6404C8.49942 15.6497 8.74752 15.6562 9 15.6562C9.36165 15.6562 9.7151 15.6441 10.0623 15.6236L10.0814 15.6225L10.0994 15.6289C10.4837 15.7665 10.8751 15.8832 11.2719 15.9785L11.3438 15.9958V18.3926L11.2248 18.3594C10.2997 18.1011 9.53866 17.7578 9.00662 17.3758C8.47893 16.997 8.15625 16.5648 8.15625 16.125V15.6367ZM12.6562 18.6669V16.2428L12.7625 16.2571C13.5041 16.3568 14.2516 16.4066 15 16.4062C15.7482 16.4073 16.4959 16.3593 17.2379 16.2627L17.3438 16.2489V18.6669L17.2636 18.6787C15.7626 18.8988 14.2374 18.8988 12.7364 18.6787L12.6562 18.6669ZM18.6562 18.3926V16.0044L18.7279 15.987C19.9301 15.6956 20.943 15.2627 21.6958 14.7294L21.8438 14.6246V16.125C21.8438 16.5648 21.5211 16.997 20.9934 17.3758C20.4613 17.7578 19.7003 18.1011 18.7752 18.3594L18.6562 18.3926ZM14.1762 14.8842C16.0728 14.1422 17.25 12.9808 17.25 11.625V9.91313C17.2814 9.9178 17.3126 9.92257 17.3438 9.92742C20.0882 10.3557 21.75 11.473 21.75 12.375C21.75 13.6144 18.8634 15 15 15C14.7285 15 14.4587 14.9927 14.1914 14.9788C14.1145 14.9749 14.0377 14.9703 13.9613 14.9653C14.0339 14.9389 14.1055 14.9118 14.1762 14.8842ZM15.75 10.3059C15.7192 10.3278 15.6879 10.3494 15.6562 10.3709C14.9021 10.8828 13.9115 11.2965 12.75 11.5781V13.7691C12.7814 13.7603 12.8127 13.7514 12.8438 13.7424C14.6261 13.2273 15.75 12.3981 15.75 11.625V10.3059ZM15.302 6.87296C15.6423 7.18563 15.8438 7.5278 15.8438 7.875C15.8438 8.2222 15.6423 8.56437 15.302 8.87704C14.9605 9.19099 14.4684 9.48554 13.8598 9.73882C12.642 10.2456 10.942 10.5938 9 10.5938C7.05801 10.5938 5.35796 10.2456 4.14019 9.73882C3.53163 9.48554 3.03955 9.19099 2.69795 8.87704C2.35774 8.56437 2.15625 8.2222 2.15625 7.875C2.15625 7.5278 2.35774 7.18563 2.69795 6.87296C3.03955 6.55901 3.53163 6.26446 4.14019 6.01118C5.35796 5.50436 7.05801 5.15625 9 5.15625C10.942 5.15625 12.642 5.50436 13.8598 6.01118C14.4684 6.26446 14.9605 6.55901 15.302 6.87296ZM2.34375 10.3709C2.31208 10.3494 2.28083 10.3278 2.25 10.3059V11.625C2.25 12.3981 3.37393 13.2273 5.15625 13.7424C5.1873 13.7514 5.21855 13.7603 5.25 13.7691V11.5781C4.08846 11.2965 3.09789 10.8828 2.34375 10.3709ZM11.1562 18.2424C9.37393 17.7273 8.25 16.8981 8.25 16.125V15.7341C8.2812 15.7352 8.31245 15.7364 8.34375 15.7375C8.55976 15.745 8.77809 15.75 9 15.75C9.36375 15.75 9.71906 15.7378 10.0678 15.7172C10.4552 15.8559 10.8499 15.9736 11.25 16.0697V18.2691C11.2186 18.2603 11.1873 18.2514 11.1562 18.2424ZM15 16.5C14.279 16.5004 13.5588 16.4544 12.8438 16.3623V16.35H12.75L12.7375 16.4429C12.7417 16.4435 12.7458 16.444 12.75 16.4446V18.5859C14.242 18.8047 15.758 18.8047 17.25 18.5859V16.3556C17.2188 16.3597 17.1875 16.3637 17.1562 16.3676C16.441 16.4568 15.7208 16.501 15 16.5ZM18.75 18.2691C18.7814 18.2603 18.8127 18.2514 18.8438 18.2424C20.6261 17.7273 21.75 16.8981 21.75 16.125V14.8059C21.7192 14.8278 21.6879 14.8494 21.6562 14.8709C20.9021 15.3828 19.9115 15.7965 18.75 16.0781V18.2691ZM17.25 7.875V8.39719C20.8669 8.87625 23.25 10.4344 23.25 12.375V16.125C23.25 18.4762 19.7034 20.25 15 20.25C10.2966 20.25 6.75 18.4762 6.75 16.125V15.6056C3.21094 15.1397 0.75 13.5834 0.75 11.625V7.875C0.75 5.52375 4.29656 3.75 9 3.75C13.7034 3.75 17.25 5.52375 17.25 7.875ZM15.75 7.875C15.75 6.63562 12.8634 5.25 9 5.25C5.13656 5.25 2.25 6.63562 2.25 7.875C2.25 9.11438 5.13656 10.5 9 10.5C12.8634 10.5 15.75 9.11438 15.75 7.875Z" fill="black"/>
</svg>
